M48
;Layer_Color=9474304
;FILE_FORMAT=2:3
INCH,LZ
;TYPE=PLATED
T1F00S00C0.028
%
T01
X01359Y01347
X01248Y01505
X01533Y01229
X01768Y01181
X02013Y01236
X02191Y01369
X02285Y01509
X02338Y01761
X02288Y02005
X02156Y02179
X02018Y02282
X01753Y02336
X01765Y02021
X01852Y01938
X01971Y01941
X01952Y01849
X01963Y01676
X01873Y01574
X01661
X01579Y01659
X01568Y01816
X01668Y01929
X01554Y01935
X01545Y02296
X01362Y02163
X01228Y01984
X01192Y0177
M30
