G04*
G04 #@! TF.GenerationSoftware,Altium Limited,Altium Designer,21.0.9 (235)*
G04*
G04 Layer_Color=16711935*
%FSLAX23Y23*%
%MOIN*%
G70*
G04*
G04 #@! TF.SameCoordinates,BEDAD971-5842-4F86-BEC8-44C97C0BC31F*
G04*
G04*
G04 #@! TF.FilePolarity,Negative*
G04*
G01*
G75*
%ADD10C,0.140*%
%ADD12C,0.058*%
%ADD15C,0.200*%
G36*
X1359Y1600D02*
X1374Y1567D01*
X1395Y1529D01*
X1427Y1482D01*
X1438Y1481D01*
X1451Y1479D01*
X1474Y1477D01*
X1627Y1456D01*
X1766Y1438D01*
X1877Y1453D01*
X1958Y1463D01*
X1978Y1466D01*
X1985Y1467D01*
X2043Y1475D01*
X2092Y1481D01*
X2107Y1486D01*
X2127Y1513D01*
X2153Y1557D01*
X2161Y1575D01*
X2174Y1606D01*
X2186Y1643D01*
X2214Y1636D01*
X2244Y1628D01*
X2263Y1622D01*
X2292Y1614D01*
X2320Y1607D01*
X2318Y1596D01*
X2307Y1562D01*
X2294Y1529D01*
X2285Y1509D01*
X2263Y1467D01*
X2244Y1435D01*
X2230Y1416D01*
X2216Y1397D01*
X2197Y1375D01*
X2185Y1362D01*
X2170Y1347D01*
X2159Y1337D01*
X2123Y1305D01*
X2101Y1289D01*
X2080Y1273D01*
X2036Y1248D01*
X2013Y1236D01*
X1978Y1221D01*
X1966Y1217D01*
X1942Y1209D01*
X1905Y1198D01*
X1866Y1189D01*
X1851Y1187D01*
X1844Y1186D01*
X1824Y1183D01*
X1808Y1182D01*
X1803Y1182D01*
X1795Y1181D01*
X1776Y1181D01*
X1760D01*
X1738Y1181D01*
X1716Y1183D01*
X1696Y1185D01*
X1673Y1188D01*
X1643Y1193D01*
X1605Y1203D01*
X1588Y1209D01*
X1569Y1215D01*
X1533Y1229D01*
X1498Y1246D01*
X1451Y1273D01*
X1406Y1305D01*
X1359Y1347D01*
X1322Y1390D01*
X1275Y1454D01*
X1258Y1486D01*
X1238Y1524D01*
X1209Y1602D01*
X1211Y1606D01*
X1275Y1624D01*
X1345Y1644D01*
X1359Y1600D01*
D02*
G37*
D10*
X2003Y1998D02*
G03*
X1527Y1998I-238J-243D01*
G01*
D12*
X1952Y1849D02*
D03*
X1963Y1676D02*
D03*
X1873Y1574D02*
D03*
X1661D02*
D03*
X1579Y1659D02*
D03*
X1568Y1816D02*
D03*
X1668Y1929D02*
D03*
X1852Y1938D02*
D03*
X1971Y1941D02*
D03*
X1765Y2021D02*
D03*
X1554Y1935D02*
D03*
X2156Y2179D02*
D03*
X1753Y2336D02*
D03*
X1362Y2163D02*
D03*
X1192Y1770D02*
D03*
X2338Y1761D02*
D03*
X2191Y1369D02*
D03*
X1359Y1347D02*
D03*
X1768Y1181D02*
D03*
X1533Y1229D02*
D03*
X2013Y1236D02*
D03*
X2285Y1509D02*
D03*
X1248Y1505D02*
D03*
X2288Y2005D02*
D03*
X1228Y1984D02*
D03*
X2018Y2282D02*
D03*
X1545Y2296D02*
D03*
D15*
X1865Y1755D02*
G03*
X1865Y1755I-100J0D01*
G01*
M02*
