G04*
G04 #@! TF.GenerationSoftware,Altium Limited,Altium Designer,21.0.9 (235)*
G04*
G04 Layer_Color=8388736*
%FSLAX23Y23*%
%MOIN*%
G70*
G04*
G04 #@! TF.SameCoordinates,BEDAD971-5842-4F86-BEC8-44C97C0BC31F*
G04*
G04*
G04 #@! TF.FilePolarity,Negative*
G04*
G01*
G75*
%ADD10C,0.140*%
%ADD11C,0.120*%
%ADD12C,0.058*%
D10*
X2270Y1755D02*
G03*
X2270Y1755I-505J0D01*
G01*
X1902D02*
G03*
X1902Y1755I-137J0D01*
G01*
D11*
X2105D02*
G03*
X2105Y1755I-340J0D01*
G01*
D12*
X1952Y1849D02*
D03*
X1963Y1676D02*
D03*
X1873Y1574D02*
D03*
X1661D02*
D03*
X1579Y1659D02*
D03*
X1568Y1816D02*
D03*
X1668Y1929D02*
D03*
X1852Y1938D02*
D03*
X1971Y1941D02*
D03*
X1765Y2021D02*
D03*
X1554Y1935D02*
D03*
X2156Y2179D02*
D03*
X1753Y2336D02*
D03*
X1362Y2163D02*
D03*
X1192Y1770D02*
D03*
X2338Y1761D02*
D03*
X2191Y1369D02*
D03*
X1359Y1347D02*
D03*
X1768Y1181D02*
D03*
X1533Y1229D02*
D03*
X2013Y1236D02*
D03*
X2285Y1509D02*
D03*
X1248Y1505D02*
D03*
X2288Y2005D02*
D03*
X1228Y1984D02*
D03*
X2018Y2282D02*
D03*
X1545Y2296D02*
D03*
M02*
